<?xml version="1.0" standalone="no"?>
<!DOCTYPE svg PUBLIC "-//W3C//DTD SVG 20010904//EN"
 "http://www.w3.org/TR/2001/REC-SVG-20010904/DTD/svg10.dtd">
<svg version="1.0" xmlns="http://www.w3.org/2000/svg"
 width="900.000000pt" height="512.000000pt" viewBox="0 0 900.000000 512.000000"
 preserveAspectRatio="xMidYMid meet">

<g transform="translate(0.000000,512.000000) scale(0.100000,-0.100000)"
fill="rgb(0,173,181)" stroke="none">
<path d="M4320 5044 c-287 -34 -563 -137 -780 -291 -122 -87 -296 -262 -382
-383 -81 -114 -175 -300 -217 -431 -67 -206 -95 -447 -71 -621 63 -463 473
-1213 1158 -2118 170 -224 349 -446 380 -470 30 -24 89 -26 121 -4 30 21 262
312 444 557 473 635 807 1185 976 1608 131 329 158 556 101 852 -42 217 -140
447 -268 627 -86 122 -260 296 -382 382 -180 128 -409 226 -627 268 -104 21
-366 34 -453 24z m446 -252 c532 -124 934 -527 1055 -1056 27 -116 36 -327 19
-434 -67 -425 -522 -1212 -1223 -2115 -76 -97 -142 -177 -147 -177 -11 0 -244
299 -415 534 -545 747 -881 1360 -951 1734 -22 116 -15 330 14 458 128 553
557 962 1122 1069 115 22 408 14 526 -13z"/>
<path d="M4322 4210 c-229 -61 -419 -251 -475 -475 -35 -139 -30 -262 17 -397
70 -199 259 -369 471 -423 76 -19 232 -19 315 1 138 32 286 129 372 244 273
366 113 887 -318 1036 -107 37 -273 44 -382 14z m260 -214 c113 -24 212 -89
271 -178 188 -283 17 -655 -319 -693 -207 -24 -415 122 -470 329 -29 108 -10
238 49 339 34 57 123 138 184 168 51 25 138 47 188 48 17 0 60 -6 97 -13z"/>
<path d="M3573 1241 c-358 -92 -592 -231 -675 -399 -29 -58 -33 -76 -33 -147
0 -108 30 -174 123 -264 185 -180 559 -306 1082 -363 175 -19 670 -16 850 6
612 73 1010 244 1126 481 25 51 29 72 29 140 0 71 -4 89 -33 147 -80 164 -315
304 -652 392 -190 49 -218 50 -261 7 -40 -41 -41 -107 -1 -151 23 -27 44 -35
147 -60 248 -59 423 -137 518 -231 48 -49 57 -63 57 -94 0 -51 -23 -89 -82
-136 -172 -135 -527 -239 -958 -278 -148 -14 -531 -14 -680 0 -418 38 -774
139 -948 270 -65 49 -92 91 -92 144 0 35 7 45 58 95 96 93 269 170 517 231
144 35 159 42 180 86 22 45 13 92 -24 127 -43 41 -79 41 -248 -3z"/>
</g>
</svg>
