<?xml version="1.0" standalone="no"?>
<!DOCTYPE svg PUBLIC "-//W3C//DTD SVG 20010904//EN"
 "http://www.w3.org/TR/2001/REC-SVG-20010904/DTD/svg10.dtd">
<svg version="1.0" xmlns="http://www.w3.org/2000/svg"
 width="920.000000pt" height="500.000000pt" viewBox="0 0 920.000000 500.000000"
 preserveAspectRatio="xMidYMid meet">

<g transform="translate(0.000000,500.000000) scale(0.100000,-0.100000)"
fill="rgb(0,173,181)" stroke="none">
<path d="M4413 4988 c-458 -29 -932 -208 -1318 -497 -127 -96 -334 -297 -438
-426 -295 -365 -479 -804 -537 -1280 -15 -120 -15 -447 -1 -565 39 -309 114
-563 247 -829 132 -265 280 -467 500 -681 433 -420 964 -657 1576 -700 142
-10 194 -9 398 6 449 34 951 239 1325 541 129 104 330 311 426 438 365 486
540 1078 498 1680 -41 591 -284 1132 -699 1559 -214 220 -416 368 -681 500
-406 202 -822 284 -1296 254z m467 -312 c491 -66 924 -280 1270 -626 345 -345
562 -785 625 -1263 19 -152 19 -422 0 -573 -86 -650 -456 -1225 -1020 -1579
-250 -158 -565 -270 -869 -310 -151 -19 -421 -19 -573 0 -822 107 -1518 677
-1787 1464 -90 262 -121 474 -113 775 6 265 44 466 128 693 284 766 956 1305
1769 1418 129 18 439 18 570 1z"/>
<path d="M2980 2395 l0 -1225 1615 0 1615 0 0 1225 0 1225 -1615 0 -1615 0 0
-1225z m2290 416 c-315 -320 -586 -587 -605 -595 -42 -20 -88 -20 -125 -1 -24
13 -627 614 -1054 1053 l-120 122 1238 0 1238 0 -572 -579z m-1656 -826 c-224
-228 -407 -415 -408 -415 0 0 -1 372 -1 826 l0 826 408 -411 408 -412 -407
-414z m2368 112 c2 -290 2 -527 2 -527 -1 0 -183 185 -404 411 l-402 411 398
402 399 401 2 -285 c2 -157 4 -522 5 -813z m-1693 30 c87 -85 117 -108 165
-126 112 -42 222 -38 321 12 22 11 85 64 141 119 l101 99 403 -413 403 -413
-611 -3 c-336 -1 -888 -1 -1227 0 l-617 3 403 413 c221 226 405 412 408 412 2
0 52 -47 110 -103z"/>
</g>
</svg>
