<?xml version="1.0" standalone="no"?>
<!DOCTYPE svg PUBLIC "-//W3C//DTD SVG 20010904//EN"
 "http://www.w3.org/TR/2001/REC-SVG-20010904/DTD/svg10.dtd">
<svg version="1.0" xmlns="http://www.w3.org/2000/svg"
 width="900.000000pt" height="615.000000pt" viewBox="0 0 900.000000 615.000000"
 preserveAspectRatio="xMidYMid meet">

<g transform="translate(0.000000,615.000000) scale(0.100000,-0.100000)"
fill="rgb(0,173,181)" stroke="none">
<path d="M1244 6068 c17 -211 59 -297 224 -463 111 -111 115 -117 82 -111 -19
4 -201 11 -405 16 -360 8 -431 15 -506 44 -34 14 -148 78 -211 120 -22 14 -28
15 -28 4 0 -7 39 -37 87 -65 196 -114 190 -113 653 -123 206 -5 397 -14 424
-19 39 -9 64 -25 124 -78 41 -38 113 -101 159 -140 80 -69 83 -73 54 -73 -60
0 -677 129 -793 166 -10 3 -18 1 -18 -4 0 -15 601 -150 775 -173 l90 -11 123
-93 c107 -80 225 -155 246 -155 16 0 3 21 -17 29 -12 5 -63 36 -112 69 -183
123 -429 334 -671 576 -136 137 -176 183 -197 230 -34 71 -55 157 -63 259 -4
42 -11 77 -17 77 -6 0 -7 -30 -3 -82z"/>
<path d="M2875 6110 c21 -131 44 -178 124 -262 59 -64 56 -42 -4 25 -65 71
-80 102 -97 196 -6 36 -15 71 -21 76 -6 6 -6 -7 -2 -35z"/>
<path d="M5626 6102 c-44 -88 -140 -351 -131 -360 8 -8 9 -5 54 128 23 68 58
158 77 199 39 84 39 109 0 33z"/>
<path d="M5860 5985 c-134 -192 -151 -223 -181 -330 -13 -48 -32 -91 -47 -107
-30 -32 -13 -38 25 -8 65 51 226 84 297 60 48 -16 161 -146 177 -203 19 -72
29 -151 29 -239 0 -52 4 -88 10 -88 15 0 12 171 -4 261 -15 84 -38 134 -92
197 -20 23 -32 42 -27 42 15 0 126 -69 156 -98 35 -34 76 -116 82 -167 3 -22
9 -71 15 -110 39 -292 -28 -672 -148 -849 -20 -30 -91 -112 -158 -182 -101
-108 -216 -234 -458 -504 -17 -19 -66 -74 -109 -122 -42 -48 -77 -83 -77 -77
0 41 95 342 148 469 35 85 99 241 141 345 l76 190 3 298 c2 163 -1 297 -5 297
-4 0 -8 -132 -8 -292 l0 -293 -99 -245 c-146 -359 -156 -380 -110 -217 14 51
55 200 90 331 l64 240 0 171 c0 192 -10 238 -61 293 -16 17 -39 32 -50 32 -23
0 -288 -254 -277 -266 4 -4 66 50 138 119 71 70 133 127 138 127 4 0 20 -13
35 -28 l28 -29 -38 -11 c-21 -6 -52 -22 -69 -34 -55 -41 -148 -128 -143 -133
3 -3 28 16 55 41 116 108 194 141 214 88 19 -48 13 -64 -22 -64 -40 0 -168
-40 -168 -53 0 -5 8 -6 18 -2 51 22 151 47 166 42 14 -5 16 -26 16 -142 0
-113 -4 -154 -26 -238 -46 -182 -214 -801 -224 -825 -6 -13 -76 -66 -167 -126
-349 -228 -588 -377 -602 -374 -11 2 -19 21 -25 56 -5 28 -13 52 -18 52 -9 0
-5 -108 8 -218 l6 -52 -36 -15 c-75 -32 -76 -31 -76 110 0 77 -4 125 -10 125
-6 0 -10 -50 -10 -131 l0 -132 -42 6 c-27 4 -49 14 -60 27 -26 32 -23 86 6
120 28 34 53 127 39 141 -7 7 -13 -4 -17 -31 -8 -53 -31 -96 -57 -110 -21 -12
-50 2 -113 54 -28 23 -29 28 -42 172 -7 81 -12 150 -10 152 5 5 136 -158 136
-169 0 -5 5 -9 10 -9 16 0 -4 32 -76 120 -35 43 -64 86 -64 96 0 24 95 349
147 504 56 166 124 326 170 404 57 94 215 291 365 455 54 59 58 62 58 37 0
-15 4 -25 9 -22 4 3 6 17 3 31 -3 19 3 34 24 56 15 16 31 29 35 29 9 0 49 -94
49 -114 0 -9 5 -16 11 -16 12 0 6 26 -26 97 l-23 51 34 33 c39 37 37 38 76
-36 32 -61 58 -144 58 -187 0 -21 5 -38 10 -38 27 0 -6 135 -57 233 l-37 69
25 19 c13 10 29 19 35 19 10 0 56 -124 89 -242 9 -32 21 -58 26 -58 13 0 12 7
-22 121 -43 147 -67 199 -91 199 -34 0 -101 -55 -220 -179 -251 -262 -419
-479 -499 -646 -61 -126 -159 -405 -225 -640 l-39 -140 -7 75 c-3 41 -10 152
-14 245 l-7 170 37 109 c20 61 57 156 81 212 48 110 49 114 36 114 -12 0 -83
-159 -128 -286 l-38 -109 1 -175 c1 -96 13 -312 28 -480 14 -168 28 -330 30
-360 l4 -55 -29 75 c-128 326 -343 920 -394 1085 -48 158 -43 232 27 425 65
180 222 477 359 681 141 210 412 509 541 597 124 85 272 89 419 11 69 -37 106
-77 187 -199 30 -47 57 -87 59 -89 2 -2 6 -1 9 2 9 8 -64 128 -121 200 -83
104 -207 161 -350 161 -69 0 -90 -5 -145 -30 -97 -46 -230 -163 -375 -329 -43
-49 -81 -93 -84 -97 -3 -4 -28 -2 -56 3 -54 10 -234 -4 -314 -25 -52 -13 -128
-61 -211 -132 -86 -73 -222 -205 -217 -210 2 -3 46 35 97 83 119 113 213 188
275 220 57 30 192 53 307 53 112 0 114 -2 65 -63 -156 -192 -366 -566 -461
-819 -80 -215 -82 -287 -16 -493 53 -168 198 -571 278 -778 17 -42 25 -74 19
-70 -7 4 -55 39 -107 78 -52 39 -184 136 -294 215 l-198 145 4 297 3 297 48
92 c82 157 197 360 253 446 46 71 61 86 118 118 36 20 66 41 66 46 0 13 0 13
-76 -28 -61 -34 -75 -47 -122 -118 -46 -70 -158 -266 -261 -460 -47 -87 -54
-184 -49 -638 2 -207 1 -374 -2 -370 -4 5 -67 105 -140 223 -74 118 -152 244
-175 280 -169 264 -245 391 -256 430 -15 56 -15 270 0 405 6 55 15 161 21 235
15 219 72 409 193 645 83 160 172 234 389 321 177 71 433 131 511 121 50 -7
128 -59 222 -149 42 -39 79 -68 83 -63 12 12 -163 170 -229 205 -58 31 -66 32
-133 27 -39 -4 -125 -20 -191 -36 -313 -77 -527 -188 -613 -316 -57 -86 -140
-265 -182 -395 -55 -167 -66 -247 -101 -728 -10 -133 -2 -257 20 -316 7 -16
11 -128 11 -282 0 -140 3 -254 8 -254 4 0 6 91 4 203 -2 112 0 219 5 237 l9
34 36 -57 36 -58 -21 -72 c-28 -98 -27 -254 2 -397 11 -58 21 -111 21 -118 0
-29 -100 60 -233 208 -252 278 -315 356 -327 402 -36 132 -29 572 10 688 42
123 122 262 219 378 64 77 105 105 144 97 20 -3 27 -1 25 8 -6 17 -45 21 -77
7 -16 -6 -47 -31 -71 -55 l-43 -44 -31 25 c-122 101 -217 223 -293 379 -15 30
-31 55 -35 55 -12 0 -12 0 42 -99 78 -143 122 -203 219 -292 l89 -82 -48 -66
c-26 -36 -58 -85 -71 -108 -13 -24 -29 -43 -36 -43 -32 0 -251 212 -448 435
-74 84 -425 500 -442 524 -2 2 -6 2 -9 -2 -13 -13 456 -556 659 -764 124 -126
167 -165 236 -210 2 -1 -8 -31 -23 -65 -42 -101 -55 -180 -58 -357 -2 -127 -6
-165 -17 -169 -41 -15 -268 53 -536 162 -88 36 -161 63 -164 60 -7 -7 -2 -9
179 -82 239 -95 392 -143 473 -150 40 -3 67 -9 67 -16 0 -6 -12 -28 -26 -49
-14 -21 -31 -53 -37 -72 l-12 -35 -205 69 c-273 92 -494 175 -549 208 -178
103 -450 359 -738 693 -79 93 -173 206 -190 229 -2 2 -6 2 -9 -2 -8 -8 211
-266 382 -451 213 -230 415 -406 554 -484 61 -34 313 -129 576 -216 l171 -57
7 -136 c4 -76 10 -150 13 -165 5 -26 3 -28 -28 -28 -69 0 -288 92 -690 288
-250 123 -287 149 -405 296 -69 86 -505 736 -665 992 -52 83 -95 145 -97 137
-5 -21 57 -122 402 -648 232 -354 331 -489 431 -590 89 -90 93 -93 280 -185
228 -111 430 -205 543 -251 98 -39 100 -38 -97 -66 -222 -31 -804 -13 -895 28
-54 25 -39 -5 39 -78 96 -90 189 -160 313 -239 51 -32 152 -97 225 -143 232
-148 358 -222 400 -237 23 -8 150 -35 282 -60 132 -25 247 -48 255 -51 8 -4
-59 -12 -149 -19 -149 -12 -174 -17 -263 -50 -54 -21 -98 -40 -98 -44 0 -9
467 -136 625 -169 239 -51 345 -60 345 -30 0 6 -8 8 -18 5 -28 -9 -219 20
-387 59 -125 29 -440 113 -495 132 -9 3 16 17 58 34 64 25 100 32 260 46 269
23 249 25 328 -42 112 -95 139 -108 216 -109 53 -1 68 -4 68 -16 0 -22 -70
-623 -74 -636 -2 -5 -24 -16 -47 -23 -56 -16 -366 -168 -534 -262 -169 -94
-246 -144 -322 -208 l-63 -51 -72 36 c-97 49 -262 110 -319 118 -45 7 -48 6
-160 -75 -142 -102 -342 -256 -479 -370 l-106 -87 -59 14 c-33 7 -87 14 -121
14 -52 0 -69 -5 -120 -36 -32 -20 -89 -51 -126 -70 -38 -19 -68 -39 -68 -44 0
-13 57 11 139 58 36 20 78 45 95 55 35 20 98 22 180 6 l57 -12 -69 -71 c-93
-96 -95 -102 -87 -200 18 -223 76 -810 80 -814 15 -15 13 34 -14 314 -58 602
-56 568 -33 606 51 82 405 377 742 618 104 74 115 80 149 74 67 -12 371 -134
371 -149 0 -9 -103 -115 -112 -115 -5 0 -37 18 -72 40 -35 22 -72 40 -84 40
-43 0 -192 -139 -418 -391 -208 -232 -231 -262 -242 -315 -27 -126 -52 -458
-52 -693 0 -95 30 -231 50 -231 13 0 13 6 -10 78 -23 74 -25 153 -10 437 22
398 27 418 149 559 250 291 495 536 536 536 7 0 40 -18 74 -40 l62 -40 -23
-30 c-23 -29 -27 -30 -84 -14 -15 4 -32 -6 -67 -42 -73 -76 -94 -124 -111
-255 -25 -191 -58 -609 -51 -645 8 -47 83 -193 150 -294 93 -139 178 -250 193
-250 9 0 1 17 -22 48 -155 207 -263 380 -290 466 -17 55 -18 66 -2 244 28 321
39 417 51 427 7 6 56 66 111 135 120 152 311 351 410 426 163 125 816 466 842
440 3 -4 -2 -91 -11 -194 -10 -103 -20 -235 -24 -294 l-6 -106 -46 -35 c-56
-44 -187 -175 -180 -181 3 -3 51 40 107 94 96 95 132 120 118 84 -3 -9 -6 -37
-6 -62 l0 -47 -58 -27 c-40 -19 -83 -53 -144 -115 -101 -102 -183 -202 -174
-210 3 -4 7 -4 9 -2 72 103 218 258 284 299 60 38 83 39 83 3 0 -41 12 -103
19 -103 3 0 7 82 7 183 2 256 33 606 110 1256 20 168 10 175 104 -74 34 -88
70 -185 82 -215 12 -30 75 -158 141 -285 238 -459 267 -516 455 -885 181 -356
360 -727 377 -779 7 -23 5 -22 -41 10 -27 18 -84 60 -128 92 -43 33 -118 79
-165 103 -86 42 -252 94 -303 94 l-27 0 19 42 c11 24 20 54 20 67 0 27 -163
448 -168 433 -1 -5 34 -103 78 -218 l81 -209 -18 -50 c-18 -48 -20 -50 -53
-49 -19 1 -124 7 -233 14 -117 7 -315 10 -485 7 -321 -5 -372 -12 -621 -87
-205 -62 -571 -210 -571 -231 0 -15 18 -10 71 16 136 69 462 188 629 229 199
50 215 51 625 51 432 0 563 -10 741 -55 180 -45 295 -111 596 -342 95 -73 130
-142 163 -317 15 -85 20 -99 31 -89 7 8 -22 163 -45 238 -20 64 -17 73 34 127
11 12 28 32 37 46 34 49 184 159 290 212 123 62 309 125 453 154 179 36 320
44 625 38 476 -10 761 -57 978 -164 76 -37 172 -115 172 -139 0 -17 -102 -258
-171 -403 -45 -95 -55 -131 -29 -105 15 15 160 341 248 559 130 323 157 434
150 602 -6 117 -18 160 -113 373 -58 133 -85 163 -140 157 -34 -3 -49 3 -105
41 -36 25 -69 49 -75 54 -18 16 234 -17 292 -38 45 -16 33 -1 414 -542 l137
-194 7 -272 c4 -156 2 -370 -4 -505 -10 -219 -9 -252 4 -239 13 13 26 489 20
745 l-7 281 -66 94 c-325 463 -452 635 -476 646 -36 16 -169 38 -282 47 -50 4
-96 10 -103 14 -15 10 237 61 335 68 39 3 83 3 96 0 13 -4 58 -37 99 -74 243
-219 459 -407 507 -442 49 -35 39 -2 -11 36 -23 17 -71 58 -106 90 -61 55 -63
58 -40 64 13 4 57 7 97 8 l74 1 71 -68 c40 -37 105 -98 146 -137 83 -79 73
-70 166 -151 87 -76 121 -98 129 -85 4 5 -3 15 -15 22 -20 10 -156 127 -224
192 l-30 29 40 -7 c22 -4 80 -22 130 -41 49 -19 155 -50 235 -69 201 -49 193
-48 188 -34 -2 7 -51 23 -109 35 -127 28 -215 53 -317 93 -43 16 -103 33 -133
37 -51 7 -60 12 -161 106 l-108 98 -72 0 c-40 0 -90 -4 -111 -9 -44 -10 -23
-25 -249 176 -187 166 -170 157 -286 149 -53 -3 -160 -19 -237 -34 l-139 -29
-181 92 c-181 92 -415 196 -598 265 -54 21 -102 41 -107 46 -11 11 -31 396
-22 406 4 4 97 32 206 62 l199 56 201 119 c111 66 229 136 264 157 34 20 62
41 62 46 0 10 5 10 -235 -7 -109 -8 -201 -12 -203 -11 -8 8 228 80 444 135
323 82 377 110 579 287 153 134 417 320 814 573 56 36 98 68 94 72 -5 5 -62
11 -128 14 -96 5 -195 0 -495 -29 -589 -56 -612 -58 -616 -54 -1 2 38 28 89
57 290 169 584 348 615 375 32 28 209 234 362 420 392 478 580 714 580 729 0
11 -15 -1 -43 -35 -42 -52 -269 -331 -357 -439 -418 -514 -537 -650 -610 -697
-137 -88 -420 -256 -630 -375 -63 -35 -165 -94 -226 -130 l-112 -65 4 106 c3
59 12 142 21 184 l16 77 108 62 c104 59 219 149 219 171 0 5 -27 -14 -59 -44
-52 -47 -228 -158 -251 -158 -4 0 11 74 34 165 l42 166 96 97 c269 275 478
483 612 610 132 127 159 147 247 191 153 77 483 177 791 240 87 18 107 26 96
36 -12 13 -402 -82 -626 -151 -136 -42 -314 -119 -372 -161 -14 -10 0 10 30
44 97 107 122 162 174 371 26 103 49 195 52 206 4 11 2 17 -6 14 -6 -2 -34
-91 -61 -197 -27 -107 -61 -216 -76 -242 -31 -59 -165 -219 -257 -309 -36 -35
-66 -67 -66 -70 0 -3 -143 -149 -317 -325 -174 -176 -313 -311 -309 -300 4 11
10 40 13 65 5 41 0 55 -57 160 -131 240 -217 363 -263 380 -37 13 -98 13 -131
0 -24 -9 -26 -6 -46 54 -37 113 -117 182 -276 237 -77 27 -98 30 -159 26 -38
-3 -95 -15 -125 -26 -30 -12 -56 -21 -57 -21 -3 0 37 136 52 173 8 20 68 113
133 205 139 197 135 192 125 192 -4 0 -60 -74 -123 -165z m603 -697 c12 -6 28
-18 35 -27 43 -53 120 -176 192 -306 l83 -149 -17 -91 c-16 -79 -98 -417 -126
-515 -7 -26 -21 -41 -52 -59 -24 -13 -106 -61 -183 -106 -77 -45 -159 -93
-182 -106 -23 -13 -107 -63 -187 -111 -80 -47 -146 -85 -146 -82 0 2 34 50 77
106 108 146 126 188 121 292 l-3 82 43 49 c83 95 141 227 184 423 19 82 22
130 22 313 l1 217 26 -14 c19 -9 36 -35 57 -86 91 -220 84 -338 -35 -571 -60
-115 -56 -107 -46 -107 12 0 101 182 130 265 46 136 39 226 -33 414 -27 68
-49 94 -95 113 -4 2 -9 13 -13 25 -5 17 -1 23 21 31 39 14 100 14 126 0z
m-4080 -1179 c8 -20 20 -40 26 -43 7 -5 11 -61 11 -165 0 -153 6 -221 19 -221
3 0 5 78 3 172 l-2 173 45 -50 c26 -27 68 -75 95 -105 l48 -56 -34 -54 c-33
-54 -42 -80 -26 -80 4 0 21 24 37 52 17 28 35 52 40 54 6 1 25 -15 44 -37 l33
-39 -36 -54 c-69 -104 -71 -138 -20 -278 41 -110 50 -118 129 -118 55 0 100
-35 115 -90 10 -39 43 -71 90 -88 16 -6 30 -28 46 -73 13 -35 24 -72 24 -82 0
-26 -41 -41 -94 -33 -57 9 -98 39 -332 246 -202 179 -223 207 -267 360 -47
162 -97 570 -84 683 4 27 16 65 29 85 l22 36 12 -79 c6 -44 18 -96 27 -116z
m3676 -3 l-4 -84 -60 -88 c-33 -48 -63 -92 -67 -98 -4 -7 -13 -4 -26 7 -28 25
-39 21 -14 -6 32 -34 14 -43 -20 -10 -33 32 -38 20 -5 -16 l22 -24 -39 23
c-35 21 -44 22 -90 13 -28 -6 -52 -10 -52 -9 -1 0 29 35 68 76 38 41 115 126
171 187 56 62 106 113 111 113 4 0 6 -38 5 -84z m2054 38 l46 -7 -147 -94
c-399 -258 -593 -397 -762 -547 -161 -144 -245 -183 -554 -261 -209 -53 -388
-106 -436 -130 -14 -7 -56 -15 -95 -19 l-70 -7 48 35 c36 25 74 41 140 56 147
34 543 139 610 161 39 13 84 40 131 78 130 107 355 309 349 315 -3 3 -46 -32
-97 -77 -155 -140 -304 -266 -333 -281 -16 -7 -66 -25 -113 -40 -96 -29 -593
-156 -610 -156 -7 0 10 17 37 38 26 21 73 66 103 98 54 59 56 60 140 77 135
26 182 44 234 87 27 22 56 45 65 50 9 4 13 12 9 16 -4 4 -36 -16 -70 -45 -66
-54 -105 -69 -240 -94 l-76 -14 33 61 c45 82 117 261 145 366 l24 85 138 78
139 78 307 30 c771 74 807 76 905 63z m-1511 -246 c-41 -198 -166 -478 -258
-578 -69 -74 -228 -204 -341 -277 -71 -46 -87 -53 -131 -53 -28 0 -53 4 -57 9
-3 6 9 42 26 80 27 60 36 71 56 71 32 0 69 39 84 88 16 54 47 82 106 97 56 14
84 48 108 129 35 116 34 122 -27 179 l-55 52 35 84 36 84 23 -69 c22 -66 46
-104 58 -92 3 3 -3 21 -14 39 -11 19 -26 60 -34 91 -18 68 -27 57 121 144
l107 63 3 -26 c5 -38 -17 -216 -33 -269 -10 -33 -10 -44 -2 -41 21 7 38 78 50
217 l12 135 70 42 70 42 3 -74 c2 -44 -5 -110 -16 -167z m-3585 122 c40 -65
40 -66 23 -90 -31 -44 -93 -161 -87 -166 3 -4 18 17 32 46 14 29 29 50 31 47
3 -3 -3 -20 -12 -39 -21 -38 -24 -142 -6 -160 9 -9 12 -9 12 0 0 7 21 -1 48
-18 26 -16 78 -43 115 -60 65 -31 67 -33 67 -68 0 -26 22 -76 73 -172 l72
-135 75 -7 c219 -21 356 -53 513 -119 66 -28 132 -53 149 -56 21 -4 33 -14 40
-34 12 -35 28 -38 28 -5 0 28 9 35 54 46 17 4 38 11 47 14 13 6 18 -1 23 -29
10 -49 56 -70 140 -61 98 10 134 25 141 57 4 16 4 38 0 49 -7 22 1 24 54 14
17 -4 31 -12 31 -19 0 -7 7 -18 15 -25 12 -10 21 -9 47 3 66 31 322 84 617
127 73 11 140 25 147 31 21 18 111 169 150 253 19 41 34 90 34 109 l0 34 69
12 c39 6 85 11 103 11 18 0 44 3 57 7 22 6 23 10 19 67 -4 57 -4 59 8 31 7
-16 13 -39 14 -50 0 -13 3 -16 11 -8 7 7 6 21 -6 48 -9 23 -12 42 -7 47 6 6
17 -9 27 -34 10 -24 20 -38 22 -31 2 6 -3 26 -12 43 -9 18 -15 33 -13 35 2 2
28 17 58 35 30 18 70 41 89 53 l33 20 -7 -24 c-4 -13 -22 -55 -40 -94 -18 -38
-58 -131 -90 -205 -113 -264 -364 -817 -425 -940 -123 -246 -218 -355 -495
-571 -259 -201 -331 -247 -472 -299 -233 -84 -414 -55 -607 100 -192 154 -736
631 -761 668 -18 25 -111 269 -339 888 -31 83 -56 154 -56 158 0 4 21 -9 46
-29 58 -44 68 -44 60 -2 -21 100 -56 324 -56 357 0 35 22 156 36 204 7 22 9
19 61 -64z m62 -103 c0 -13 -59 -64 -59 -51 0 3 9 22 21 40 19 32 40 38 38 11z
m21 -36 c0 -10 -7 -24 -16 -31 -24 -21 -67 -100 -75 -139 -6 -33 -7 -32 -8 17
-1 58 16 100 57 145 30 32 42 34 42 8z m-809 -43 c4 -6 9 -38 12 -73 8 -81 53
-283 79 -353 11 -29 35 -75 53 -102 l34 -51 -52 7 c-137 17 -281 46 -343 69
-79 29 -284 140 -423 227 -51 32 -96 56 -99 53 -7 -7 -16 -1 148 -99 302 -182
417 -226 660 -256 52 -6 105 -13 118 -16 22 -4 207 -163 199 -171 -5 -4 -242
38 -481 87 -164 33 -159 30 -416 191 -423 263 -518 329 -650 449 l-45 42 40
-6 c143 -21 301 -29 510 -29 204 1 262 5 390 26 147 23 253 25 266 5z m921
-130 c48 -78 86 -143 84 -145 -7 -8 -109 32 -181 70 -89 47 -98 63 -69 119 20
41 63 98 72 98 4 -1 46 -65 94 -142z m2624 81 c19 -11 34 -23 34 -25 0 -3 -11
-20 -25 -38 -32 -41 -23 -50 25 -26 43 22 50 19 50 -26 0 -37 10 -33 -150 -54
-89 -11 -208 -40 -273 -65 -36 -14 -32 -9 68 104 96 107 111 120 158 134 69
20 74 20 113 -4z m-2251 -189 c245 -177 431 -313 454 -334 21 -19 61 -95 61
-116 0 -5 -39 15 -87 44 -49 28 -194 109 -324 179 l-236 128 -7 52 c-10 89 -8
149 7 141 6 -5 66 -47 132 -94z m-665 -248 c50 -135 89 -247 86 -249 -9 -9
-76 60 -76 79 0 11 -17 38 -39 59 -35 36 -43 39 -92 39 -30 0 -60 4 -67 9 -17
10 -82 187 -82 223 0 36 14 69 52 128 l33 50 47 -47 c44 -43 52 -60 138 -291z
m3264 245 c19 -25 19 -28 2 -89 -28 -104 -53 -139 -111 -155 -51 -15 -105 -56
-105 -80 0 -27 -40 -92 -61 -98 -11 -4 -22 -5 -23 -3 -2 1 24 64 58 139 33 74
83 186 110 248 l48 112 31 -24 c17 -13 40 -36 51 -50z m-833 -47 c-17 -64 -18
-66 -92 -114 -102 -69 -438 -270 -508 -306 -58 -29 -82 -34 -133 -32 -23 2
-28 7 -28 28 0 20 4 25 16 20 17 -7 6 -13 459 279 165 106 301 192 302 192 1
-1 -6 -31 -16 -67z m319 -2 c0 -33 -82 -197 -147 -295 -36 -55 -41 -57 -128
-68 -208 -25 -604 -103 -656 -129 -15 -8 -30 -11 -33 -8 -16 15 -1 34 47 58
28 15 94 51 145 81 l93 55 40 -16 c120 -48 259 16 299 139 30 91 107 152 239
192 100 29 101 29 101 -9z m-2366 -8 c6 0 38 -43 71 -95 32 -52 62 -95 67 -95
4 0 8 29 8 65 l0 64 70 -37 c52 -28 72 -43 76 -62 14 -66 29 -102 57 -130 61
-63 134 -82 207 -55 25 9 52 17 60 18 8 1 56 -23 106 -53 68 -40 94 -62 102
-84 19 -49 23 -50 -167 32 -116 50 -262 83 -446 103 l-116 12 -69 131 c-46 86
-70 143 -70 165 0 26 3 32 16 27 9 -3 21 -6 28 -6z m2005 -150 c-10 -65 -47
-113 -109 -139 -54 -23 -101 -27 -149 -10 -28 10 -43 29 -23 29 5 0 69 38 143
84 74 47 137 85 140 85 3 1 2 -21 -2 -49z m-1469 -123 l65 -36 -37 -16 c-49
-20 -84 -19 -133 4 -65 30 -115 96 -115 151 0 16 11 13 78 -25 42 -23 106 -59
142 -78z m397 -142 c25 -19 50 -35 56 -35 6 0 2 -9 -8 -20 -24 -27 -51 -25
-80 5 -22 21 -36 85 -19 85 3 0 26 -16 51 -35z m2408 -44 c-15 -13 -447 -268
-475 -280 -44 -19 -392 -113 -397 -107 -14 13 9 34 49 44 127 32 346 110 440
157 59 29 104 55 102 58 -3 3 -60 -21 -127 -53 -111 -53 -452 -169 -463 -157
-3 3 -8 36 -11 75 -4 55 -2 80 13 115 l18 44 61 -5 c66 -5 90 3 173 61 l44 29
181 4 c150 4 257 10 387 23 8 0 10 -2 5 -8z m-896 -366 c-1 -33 4 -145 9 -250
6 -104 10 -199 10 -210 0 -11 5 -126 12 -255 11 -216 9 -428 -5 -540 -14 -109
-45 -290 -55 -315 -6 -15 -8 -30 -5 -33 14 -14 27 23 45 123 11 60 22 110 23
112 8 8 102 -85 129 -126 15 -25 28 -39 28 -32 0 25 -41 80 -99 133 -55 52
-57 54 -51 96 l5 43 66 -54 c93 -77 174 -157 198 -198 12 -19 21 -27 21 -18 0
27 -76 111 -180 199 l-99 84 6 140 c3 78 0 247 -6 375 -6 129 -9 237 -7 239 8
8 423 -166 603 -253 518 -251 726 -436 789 -700 12 -52 15 -99 11 -183 -2 -62
-6 -115 -9 -117 -3 -3 -19 0 -37 6 -88 31 -297 -22 -587 -147 -96 -42 -104
-43 -155 -34 -150 26 -314 35 -634 35 -312 0 -351 -2 -469 -23 -71 -13 -139
-27 -151 -32 -25 -9 -27 -5 -54 79 -22 69 -13 102 103 389 62 155 111 284 108
287 -8 7 -242 -575 -242 -601 0 -12 9 -52 21 -89 11 -37 18 -69 15 -72 -2 -3
-51 -20 -107 -39 -189 -64 -320 -134 -443 -238 -36 -31 -66 -51 -66 -44 0 7
11 49 23 93 18 61 43 111 106 210 96 150 350 521 506 740 148 207 253 431 455
968 44 116 97 250 117 296 l38 84 7 -34 c4 -19 7 -61 7 -94z m-200 -277 c-11
-29 -38 -98 -59 -154 -141 -368 -252 -594 -392 -789 -243 -341 -523 -757 -568
-845 -13 -25 -35 -93 -50 -151 -18 -71 -37 -119 -55 -143 l-28 -36 -23 31
c-12 17 -40 45 -61 63 -21 19 -44 51 -52 72 -37 104 -396 829 -686 1384 -62
118 -156 301 -210 405 -115 221 -135 226 171 -45 278 -246 520 -447 579 -481
85 -50 178 -73 285 -73 208 1 379 79 665 303 273 213 369 306 449 434 27 42
50 77 52 77 2 0 -6 -24 -17 -52z m1468 -780 c22 -24 57 -88 51 -93 -2 -2 -30
24 -63 56 -54 54 -57 59 -34 59 14 0 35 -10 46 -22z m-5225 -200 c15 -12 7
-25 -71 -120 -109 -135 -104 -130 -96 -83 11 61 33 101 88 161 53 59 55 60 79
42z m5356 -499 c28 -10 31 -14 25 -37 -16 -67 -113 -330 -132 -360 -6 -10 -16
-6 -42 18 -81 75 -241 147 -411 185 -43 9 -78 18 -78 20 0 8 250 108 338 135
160 50 240 60 300 39z"/>
<path d="M6558 4623 c-10 -78 -24 -157 -31 -175 -29 -67 -196 -266 -399 -476
-55 -57 -98 -105 -96 -108 5 -5 153 145 268 271 99 109 196 230 225 279 27 47
58 224 53 302 -2 36 -7 13 -20 -93z"/>
<path d="M7725 4056 c-238 -50 -394 -89 -545 -138 -74 -25 -174 -55 -222 -69
-49 -13 -88 -28 -88 -32 0 -5 7 -6 15 -3 9 3 42 12 74 21 31 8 134 39 227 69
174 55 454 124 627 154 53 9 97 20 97 24 0 12 -9 10 -185 -26z"/>
<path d="M3312 2990 c-116 -13 -98 -23 23 -13 61 4 171 7 245 7 100 -1 121 1
80 6 -69 10 -252 10 -348 0z"/>
<path d="M5250 2997 c3 -4 78 -9 165 -12 88 -3 178 -9 200 -15 48 -11 59 -5
19 11 -29 12 -394 27 -384 16z"/>
<path d="M3370 2952 c0 -5 62 -12 138 -16 194 -9 372 -32 477 -61 49 -14 109
-25 132 -25 38 0 43 3 43 23 -1 12 -7 36 -15 52 -14 27 -15 28 -11 5 2 -14 8
-36 12 -49 7 -24 7 -24 -47 -18 -30 4 -82 16 -114 27 -69 24 -229 45 -443 60
-184 12 -172 12 -172 2z"/>
<path d="M4746 2941 c-13 -14 -14 -24 -6 -45 5 -15 17 -29 26 -33 9 -3 93 8
188 25 94 17 207 36 251 43 104 16 302 16 338 1 15 -6 27 -7 27 -2 0 16 -73
30 -162 30 -105 0 -258 -19 -472 -60 -167 -32 -186 -30 -186 13 0 11 8 26 18
33 9 7 12 14 6 14 -6 0 -18 -8 -28 -19z"/>
<path d="M4391 2929 c-53 -16 -28 -22 35 -9 31 7 75 9 96 6 26 -4 37 -3 33 4
-8 12 -118 12 -164 -1z"/>
<path d="M4485 2649 l3 -227 -29 -4 c-22 -3 -44 4 -76 24 l-46 29 6 75 c4 41
3 74 -2 74 -11 0 -21 -51 -21 -110 0 -51 17 -73 77 -104 54 -27 138 -1 217 67
l40 34 -54 104 c-29 57 -66 125 -81 151 -15 25 -30 61 -33 80 -2 18 -3 -69 -1
-193z m81 -3 l67 -129 -34 -29 c-36 -30 -89 -62 -94 -56 -2 2 -5 80 -7 175 -1
94 -2 171 -2 170 1 -1 32 -60 70 -131z"/>
<path d="M4656 2368 c-14 -8 -76 -9 -204 -5 -170 6 -187 5 -222 -13 -21 -11
-42 -25 -45 -31 -14 -21 5 -21 42 2 37 23 45 24 248 24 175 0 212 -3 222 -15
16 -19 18 3 3 31 -12 22 -18 23 -44 7z"/>
<path d="M4357 2140 c-48 -11 -95 -24 -105 -29 -24 -14 -18 -14 87 9 100 22
201 28 241 16 21 -7 23 -6 12 5 -20 21 -137 21 -235 -1z"/>
<path d="M4527 2110 c34 -4 73 -14 87 -24 14 -9 26 -12 26 -6 0 20 -60 40
-117 39 l-58 -2 62 -7z"/>
<path d="M4320 2086 c-64 -34 -61 -48 4 -17 30 14 55 29 55 34 1 12 -12 8 -59
-17z"/>
<path d="M2170 3779 c-25 -4 -170 -8 -322 -8 -204 -1 -278 -4 -278 -13 0 -13
584 -4 635 10 42 12 18 20 -35 11z"/>
<path d="M5321 1483 c-61 -152 -108 -279 -106 -282 3 -2 7 -2 8 0 13 15 224
559 217 559 -4 0 -58 -125 -119 -277z"/>
<path d="M4154 1466 c9 -91 23 -124 78 -186 56 -63 118 -179 118 -221 0 -16 5
-29 11 -29 33 0 -40 165 -104 238 -65 72 -80 106 -85 190 -3 39 -9 72 -15 72
-6 0 -7 -23 -3 -64z"/>
<path d="M4656 1425 c-23 -100 -27 -107 -94 -178 -30 -31 -53 -60 -50 -63 7
-6 94 84 120 124 20 30 51 152 46 179 -2 10 -12 -18 -22 -62z"/>
<path d="M6528 6098 c-78 -93 -170 -219 -164 -225 3 -4 7 -4 9 -2 35 50 104
141 154 202 35 42 59 77 55 77 -5 0 -30 -24 -54 -52z"/>
<path d="M7445 6023 c-166 -299 -246 -409 -524 -718 -182 -202 -216 -244 -207
-253 4 -4 12 2 18 12 6 10 25 35 42 55 18 20 106 119 197 221 249 280 262 298
401 530 101 170 161 280 151 280 -4 0 -39 -57 -78 -127z"/>
<path d="M3735 5949 c-88 -30 -234 -101 -360 -174 -91 -53 -116 -73 -146 -117
-49 -72 -182 -319 -175 -326 8 -8 7 -10 69 113 31 61 77 142 101 181 40 62 56
76 133 123 171 103 419 211 483 211 27 0 229 -103 283 -144 26 -20 47 -31 47
-26 0 18 -93 79 -197 130 -116 57 -146 60 -238 29z"/>
<path d="M4857 5880 c-77 -24 -268 -134 -329 -189 -96 -86 -281 -354 -455
-657 -111 -193 -224 -406 -218 -412 7 -7 3 -13 80 133 92 177 211 383 315 547
184 287 278 391 437 480 136 77 192 98 262 98 46 0 66 -5 95 -25 43 -29 54
-32 35 -8 -21 25 -89 53 -129 52 -19 0 -61 -8 -93 -19z"/>
<path d="M8540 5707 c-199 -82 -536 -300 -1000 -645 -274 -204 -245 -181 -238
-188 4 -3 46 25 95 63 128 100 438 326 583 425 250 172 560 347 613 348 9 0
17 5 17 10 0 14 -8 13 -70 -13z"/>
<path d="M5060 5612 c0 -5 14 -9 30 -9 57 0 138 -112 172 -236 13 -49 33 -67
22 -19 -21 88 -84 203 -134 245 -30 25 -90 38 -90 19z"/>
<path d="M5595 5503 c-16 -2 -43 -17 -58 -31 -56 -53 -217 -316 -202 -330 4
-4 11 0 16 8 5 8 40 66 77 128 37 62 85 134 108 159 l40 46 85 1 c75 1 89 -2
131 -27 50 -30 112 -93 130 -133 6 -13 15 -24 20 -24 12 0 10 6 -12 49 -57
114 -195 177 -335 154z"/>
<path d="M4834 5376 c-156 -79 -253 -207 -514 -681 -45 -82 -91 -165 -102
-184 -10 -18 -16 -36 -12 -40 4 -3 9 -1 11 6 2 6 56 104 119 218 138 248 262
452 316 520 76 95 209 177 290 179 60 1 64 16 4 16 -29 0 -65 -11 -112 -34z"/>
<path d="M5011 5293 c-44 -22 -182 -159 -301 -298 -149 -175 -323 -396 -316
-403 4 -3 14 5 23 19 10 13 79 101 154 194 218 271 371 434 446 473 73 39 227
-37 249 -123 3 -13 4 -53 2 -89 -4 -81 8 -87 18 -10 12 100 -26 174 -115 218
-66 34 -118 40 -160 19z"/>
<path d="M3801 5214 c-133 -43 -175 -63 -198 -93 -27 -34 -125 -235 -203 -416
l-83 -190 -5 -129 c-4 -121 15 -676 24 -685 11 -11 11 15 3 159 -5 85 -10 263
-11 395 l-2 241 83 194 c100 234 183 399 217 433 16 16 73 41 167 72 78 26
144 49 146 51 16 15 -21 6 -138 -32z"/>
<path d="M6035 5043 c33 -87 46 -278 24 -357 -6 -22 -89 -171 -183 -330 -256
-432 -299 -506 -293 -512 2 -3 33 44 67 103 35 59 141 240 237 401 194 328
209 364 200 492 -6 92 -35 220 -49 220 -6 0 -7 -8 -3 -17z"/>
<path d="M7880 5033 c0 -4 -96 -105 -213 -224 -168 -171 -231 -228 -305 -277
-108 -70 -375 -207 -542 -278 -131 -55 -125 -52 -118 -60 8 -7 231 92 408 182
190 96 289 158 376 236 118 105 415 416 404 423 -5 3 -10 3 -10 -2z"/>
<path d="M3116 4778 c-35 -238 -35 -248 24 -516 29 -133 57 -242 61 -242 5 0
6 6 4 13 -2 6 -25 109 -52 227 -35 160 -47 234 -45 288 1 69 27 287 38 325 3
9 1 17 -4 17 -5 0 -16 -51 -26 -112z"/>
<path d="M2661 4698 c-22 -45 -32 -84 -37 -138 -11 -136 33 -512 72 -609 26
-66 32 -47 8 27 -32 96 -54 253 -61 438 -6 177 2 240 43 300 27 39 28 44 15
44 -6 0 -23 -28 -40 -62z"/>
<path d="M5040 3779 c-101 -62 -480 -395 -480 -422 0 -5 33 22 73 61 168 163
412 362 443 362 8 0 14 5 14 10 0 15 -11 12 -50 -11z"/>
<path d="M4879 3735 c-113 -85 -249 -199 -244 -204 3 -2 10 1 17 6 135 109
279 222 298 235 14 9 20 17 13 17 -6 1 -44 -24 -84 -54z"/>
<path d="M2580 2882 c0 -5 66 -24 148 -41 165 -36 332 -52 332 -31 0 7 -7 10
-15 6 -34 -13 -331 33 -447 70 -10 3 -18 1 -18 -4z"/>
<path d="M3365 1683 c4 -10 68 -186 142 -391 75 -205 138 -370 141 -367 8 7
-271 775 -282 775 -4 0 -5 -8 -1 -17z"/>
<path d="M8170 816 c0 -2 23 -51 50 -108 71 -149 94 -247 87 -368 -4 -52 -16
-148 -27 -214 -19 -108 -20 -139 -4 -124 16 16 46 255 47 368 1 112 -2 134
-27 210 -33 97 -101 240 -116 240 -6 0 -10 -2 -10 -4z"/>
</g>
</svg>
