<?xml version="1.0" standalone="no"?>
<!DOCTYPE svg PUBLIC "-//W3C//DTD SVG 20010904//EN"
 "http://www.w3.org/TR/2001/REC-SVG-20010904/DTD/svg10.dtd">
<svg version="1.0" xmlns="http://www.w3.org/2000/svg"
 width="840.000000pt" height="880.000000pt" viewBox="0 0 840.000000 880.000000"
 preserveAspectRatio="xMidYMid meet">

<g transform="translate(0.000000,880.000000) scale(0.100000,-0.100000)"
fill="rgb(0,173,181)" stroke="none">
<path d="M3969 8390 c-990 -62 -1896 -469 -2593 -1166 -507 -507 -860 -1120
-1041 -1809 -246 -936 -142 -1936 292 -2800 197 -393 407 -686 718 -1004 312
-319 633 -558 1011 -753 480 -247 929 -380 1468 -434 223 -22 688 -15 896 15
754 107 1396 382 1982 849 171 136 474 439 610 610 413 519 686 1104 808 1737
49 254 61 381 67 685 4 229 2 331 -11 456 -72 724 -314 1368 -732 1954 -237
331 -575 671 -912 913 -563 407 -1229 660 -1928 732 -184 19 -467 25 -635 15z
m-944 -1875 c54 -31 77 -63 155 -210 34 -66 149 -282 254 -480 l191 -360 0
-75 c-1 -104 -21 -138 -180 -300 -73 -74 -136 -145 -139 -157 -4 -12 2 -48 15
-85 54 -162 198 -389 373 -588 109 -123 351 -358 460 -447 242 -195 506 -330
588 -301 15 5 86 72 158 148 157 167 211 200 319 200 36 -1 82 -7 101 -14 56
-20 922 -534 957 -568 18 -17 39 -46 48 -64 21 -45 19 -127 -4 -172 -27 -51
-685 -705 -736 -730 -73 -36 -145 -52 -239 -52 -396 1 -869 179 -1386 523
-255 169 -512 389 -800 683 -316 323 -515 576 -709 899 -153 256 -260 497
-325 730 -51 187 -69 301 -68 441 0 106 4 129 28 195 l28 74 346 348 c190 192
361 357 380 367 52 28 133 26 185 -5z"/>
</g>
</svg>
